<!DOCTYPE svg PUBLIC "-//W3C//DTD SVG 1.1//EN" "http://www.w3.org/Graphics/SVG/1.1/DTD/svg11.dtd">
<!-- Uploaded to: SVG Repo, www.svgrepo.com, Transformed by: SVG Repo Mixer Tools -->
<svg xmlns="http://www.w3.org/2000/svg" aria-label="Gmail" role="img" viewBox="0 0 512 512" width="64px" height="64px" fill="#000000" data-darkreader-inline-fill="" style="--darkreader-inline-fill: #000000;">
<g id="SVGRepo_bgCarrier" stroke-width="0"/>
<g id="SVGRepo_tracerCarrier" stroke-linecap="round" stroke-linejoin="round"/>
<g id="SVGRepo_iconCarrier">
<rect width="512" height="512" rx="15%" fill="#ffffff" data-darkreader-inline-fill="" style="--darkreader-inline-fill: #181a1b;"/>
<path d="M158 391v-142l-82-63V361q0 30 30 30" fill="#4285f4" data-darkreader-inline-fill="" style="--darkreader-inline-fill: #0943a2;"/>
<path d="M 154 248l102 77l102-77v-98l-102 77l-102-77" fill="#ea4335" data-darkreader-inline-fill="" style="--darkreader-inline-fill: #a71d11;"/>
<path d="M354 391v-142l82-63V361q0 30-30 30" fill="#34a853" data-darkreader-inline-fill="" style="--darkreader-inline-fill: #2a8642;"/>
<path d="M76 188l82 63v-98l-30-23c-27-21-52 0-52 26" fill="#c5221f" data-darkreader-inline-fill="" style="--darkreader-inline-fill: #9e1b19;"/>
<path d="M436 188l-82 63v-98l30-23c27-21 52 0 52 26" fill="#fbbc04" data-darkreader-inline-fill="" style="--darkreader-inline-fill: #977102;"/>
</g>
</svg>